<svg width="45" height="56" viewBox="0 0 45 56" fill="none" xmlns="http://www.w3.org/2000/svg">
<path d="M45 22.5C45 16.4504 45 13.4256 44.1925 10.9811C42.6032 6.17046 38.8295 2.39677 34.0189 0.807549C31.5744 0 28.5496 0 22.5 0C16.4504 0 13.4256 0 10.9811 0.807549C6.17046 2.39677 2.39677 6.17046 0.807549 10.9811C0 13.4256 0 16.4504 0 22.5V33.5C0 39.5496 0 42.5744 0.807549 45.0189C2.39677 49.8295 6.17046 53.6032 10.9811 55.1925C13.4256 56 16.4504 56 22.5 56C28.5496 56 31.5744 56 34.0189 55.1925C38.8295 53.6032 42.6032 49.8295 44.1925 45.0189C45 42.5744 45 39.5496 45 33.5V22.5Z" fill="#4AC3E3"/>
</svg>
